<svg width="147" height="150" viewBox="0 0 147 150" fill="none" xmlns="http://www.w3.org/2000/svg">
<g filter="url(#filter0_d_29204_2)">
<rect x="146" y="72.1249" width="102" height="102" rx="51" transform="rotate(135 146 72.1249)" fill="white"/>
</g>
<g clip-path="url(#clip0_29204_2)">
<path d="M92.6691 53.6271H92.0759C93.2067 51.786 92.7891 49.3143 90.9742 47.9677C89.0187 46.5169 86.2397 46.9839 84.875 49.0233L81.7944 53.6272H55.3304C53.1551 53.6272 51.3854 55.3969 51.3854 57.5721V82.7937C51.3854 84.9689 53.1551 86.7386 55.3304 86.7386H70.6537L69.4959 91.6015H66.997C65.3685 91.6015 64.0435 92.9264 64.0435 94.555V95.1717H60.963C60.4236 95.1717 59.9864 95.609 59.9864 96.1482C59.9864 96.6874 60.4236 97.1247 60.963 97.1247H87.0366C87.5759 97.1247 88.0131 96.6874 88.0131 96.1482C88.0131 95.609 87.5759 95.1717 87.0366 95.1717H83.9561V94.555C83.9561 92.9264 82.6311 91.6015 81.0025 91.6015H78.5037L77.3459 86.7386H92.6692C94.8445 86.7386 96.6141 84.9689 96.6141 82.7937V77.244V57.572C96.6141 55.3968 94.8445 53.6271 92.6691 53.6271ZM78.677 70.7946C77.1502 71.8634 74.2898 70.4106 71.5582 71.8682C70.8917 68.4059 71.3119 65.1496 74.7811 64.4309C75.2294 64.3374 75.7121 64.2951 76.123 64.3033C77.2972 65.1745 78.4849 66.0556 79.6558 66.9245C80.1684 68.4154 79.976 69.8853 78.677 70.7946ZM79.6612 60.3272L82.4255 62.3782L80.2996 64.97C79.4244 64.3207 78.6721 63.7625 77.7969 63.1131C77.9787 62.8415 79.495 60.5754 79.6612 60.3272ZM86.4983 50.1096C87.238 49.004 88.7464 48.7468 89.8105 49.5363C90.8749 50.326 91.0655 51.8441 90.2221 52.8725C88.7255 54.697 85.1676 59.0349 83.6654 60.8664L80.7484 58.7022L86.4983 50.1096ZM82.0029 94.555V95.1717H65.9966V94.555C65.9966 94.0034 66.4454 93.5546 66.997 93.5546H81.0024C81.5541 93.5546 82.0029 94.0034 82.0029 94.555ZM76.4959 91.6015H71.5036L72.6614 86.7386H75.3381L76.4959 91.6015ZM94.6611 82.7937C94.6611 83.892 93.7675 84.7855 92.6692 84.7855C91.119 84.7855 57.0734 84.7855 55.3305 84.7855C54.2322 84.7855 53.3386 83.892 53.3386 82.7937V78.2205H56.1292C56.6685 78.2205 57.1057 77.7832 57.1057 77.244C57.1057 76.7047 56.6685 76.2674 56.1292 76.2674H53.3384V57.572C53.3384 56.4737 54.232 55.5802 55.3303 55.5802H80.4875C79.552 56.9783 76.8226 61.0571 75.9581 62.349C74.0444 62.3662 72.1338 63.0329 70.883 64.4931C69.181 66.4798 68.882 69.6017 69.9943 73.7717C70.1844 74.4848 71.0741 74.7402 71.6125 74.226C74.1375 71.8132 77.2824 74.445 80.0986 72.1656C81.8178 70.774 82.2246 68.5617 81.5764 66.493C82.4526 65.4247 89.6489 56.651 90.5272 55.5802H92.669C93.7673 55.5802 94.6609 56.4737 94.6609 57.572V76.2673H63.9413C63.402 76.2673 62.9648 76.7046 62.9648 77.2439C62.9648 77.7831 63.402 78.2204 63.9413 78.2204H94.6611V82.7937Z" fill="#3D3D3F"/>
<path d="M59.8463 76.2863C59.3761 76.3824 59.0611 76.7888 59.0611 77.2444C59.0611 77.8553 59.6196 78.323 60.2281 78.2015C60.7688 78.0917 61.0982 77.5706 60.9947 77.053C60.886 76.5188 60.3678 76.1813 59.8463 76.2863Z" fill="#3D3D3F"/>
</g>
<defs>
<filter id="filter0_d_29204_2" x="0.875122" y="3.12488" width="146" height="146" filterUnits="userSpaceOnUse" color-interpolation-filters="sRGB">
<feFlood flood-opacity="0" result="BackgroundImageFix"/>
<feColorMatrix in="SourceAlpha" type="matrix" values="0 0 0 0 0 0 0 0 0 0 0 0 0 0 0 0 0 0 127 0" result="hardAlpha"/>
<feOffset dy="4"/>
<feGaussianBlur stdDeviation="11"/>
<feComposite in2="hardAlpha" operator="out"/>
<feColorMatrix type="matrix" values="0 0 0 0 0.370833 0 0 0 0 0.370833 0 0 0 0 0.370833 0 0 0 0.05 0"/>
<feBlend mode="normal" in2="BackgroundImageFix" result="effect1_dropShadow_29204_2"/>
<feBlend mode="normal" in="SourceGraphic" in2="effect1_dropShadow_29204_2" result="shape"/>
</filter>
<clipPath id="clip0_29204_2">
<rect width="50" height="50" fill="white" transform="translate(49 47.1249)"/>
</clipPath>
</defs>
</svg>
